<?xml version="1.0" encoding="UTF-8" standalone="no"?>
<svg
   width="343"
   height="583"
   style="-webkit-tap-highlight-color:rgba(0, 0, 0, 0)"
   version="1.1"
   id="svg37"
   sodipodi:docname="cINN Architecture.svg"
   inkscape:version="1.4.3 (0d15f75, 2025-12-25)"
   xmlns:inkscape="http://www.inkscape.org/namespaces/inkscape"
   xmlns:sodipodi="http://sodipodi.sourceforge.net/DTD/sodipodi-0.dtd"
   xmlns="http://www.w3.org/2000/svg"
   xmlns:svg="http://www.w3.org/2000/svg">
  <sodipodi:namedview
     id="namedview37"
     pagecolor="#ffffff"
     bordercolor="#000000"
     borderopacity="0.25"
     inkscape:showpageshadow="2"
     inkscape:pageopacity="0.0"
     inkscape:pagecheckerboard="0"
     inkscape:deskcolor="#d1d1d1"
     inkscape:zoom="3.6116149"
     inkscape:cx="189.94273"
     inkscape:cy="249.88821"
     inkscape:window-width="1920"
     inkscape:window-height="1046"
     inkscape:window-x="-11"
     inkscape:window-y="-11"
     inkscape:window-maximized="1"
     inkscape:current-layer="svg37" />
  <defs
     id="defs37">
    <marker
       id="arrow"
       viewBox="0 -5 10 10"
       markerWidth="7"
       markerHeight="7"
       orient="auto"
       refX="40">
      <path
         d="M 0,-5 10,0 0,5"
         style="fill:none;stroke:#505050"
         id="path37" />
    </marker>
  </defs>
  <g
     transform="matrix(0.80379829,0,0,0.8633483,-7.8953478,-7.8899331)"
     id="g70"
     style="stroke-width:1.20042">
    <path
       d="m 180.5,169.5 c 0,-2.761 2.239,-5 5,-5 h 84 c 2.761,0 5,2.239 5,5 v 20 c 0,2.761 -2.239,5 -5,5 h -84 c -2.761,0 -5,-2.239 -5,-5 z"
       stroke="#000000"
       stroke-width="1.60056"
       stroke-miterlimit="8"
       fill="#ffffff"
       fill-rule="evenodd"
       id="path1" />
    <text
       font-family="'Times New Roman', 'Times New Roman_MSFontService', sans-serif"
       font-weight="400"
       font-size="13px"
       transform="translate(217.092,176)"
       id="text1"
       style="stroke-width:1.20042">128</text>
    <text
       font-family="'Times New Roman', 'Times New Roman_MSFontService', sans-serif"
       font-weight="400"
       font-size="13px"
       transform="translate(197.345,192)"
       id="text2"
       style="stroke-width:1.20042">Parameters</text>
    <path
       d="m 81.5001,80.0002 c 0,-1.9331 1.567,-3.5001 3.5001,-3.5001 H 183 c 1.933,0 3.5,1.567 3.5,3.5001 v 13.9997 c 0,1.9331 -1.567,3.5002 -3.5,3.5002 H 85.0002 c -1.9331,0 -3.5001,-1.5671 -3.5001,-3.5002 z"
       stroke="#000000"
       stroke-width="1.60056"
       stroke-miterlimit="8"
       fill="#ffffff"
       fill-rule="evenodd"
       id="path2" />
    <text
       font-family="'Times New Roman', 'Times New Roman_MSFontService', sans-serif"
       font-weight="400"
       font-size="13px"
       transform="translate(95.4814,92)"
       id="text3"
       style="stroke-width:1.20042">20</text>
    <text
       font-family="'Times New Roman', 'Times New Roman_MSFontService', sans-serif"
       font-weight="400"
       font-size="13px"
       transform="translate(112.148,92)"
       id="text4"
       style="stroke-width:1.20042">Parameter</text>
    <text
       font-family="'Times New Roman', 'Times New Roman_MSFontService', sans-serif"
       font-weight="400"
       font-size="13px"
       transform="translate(166.481,92)"
       id="text5"
       style="stroke-width:1.20042">s</text>
    <path
       d="m 221.5,15.8334 c 0,-2.9455 2.388,-5.3333 5.333,-5.3333 h 92.334 c 2.945,0 5.333,2.3878 5.333,5.3333 v 21.3333 c 0,2.9455 -2.388,5.3333 -5.333,5.3333 h -92.334 c -2.945,0 -5.333,-2.3878 -5.333,-5.3333 z"
       stroke="#000000"
       stroke-width="1.60056"
       stroke-miterlimit="8"
       fill="#ffffff"
       fill-rule="evenodd"
       id="path5" />
    <text
       font-family="'Times New Roman', 'Times New Roman_MSFontService', sans-serif"
       font-weight="400"
       font-size="13px"
       transform="translate(237.852,23)"
       id="text6"
       style="stroke-width:1.20042">1000 absorb.</text>
    <text
       font-family="'Times New Roman', 'Times New Roman_MSFontService', sans-serif"
       font-weight="400"
       font-size="13px"
       transform="translate(242.265,39)"
       id="text7"
       style="stroke-width:1.20042">Coefficient</text>
    <path
       d="m 87.5001,169.5 c 0,-2.761 2.2386,-5 5,-5 H 175.5 c 2.761,0 5,2.239 5,5 v 20 c 0,2.761 -2.239,5 -5,5 H 92.5001 c -2.7614,0 -5,-2.239 -5,-5 z"
       stroke="#000000"
       stroke-width="1.60056"
       stroke-miterlimit="8"
       fill="#ffffff"
       fill-rule="evenodd"
       id="path7" />
    <text
       font-family="'Times New Roman', 'Times New Roman_MSFontService', sans-serif"
       font-weight="400"
       font-size="13px"
       transform="translate(121.315,176)"
       id="text8"
       style="stroke-width:1.20042">1</text>
    <text
       font-family="'Times New Roman', 'Times New Roman_MSFontService', sans-serif"
       font-weight="400"
       font-size="13px"
       transform="translate(127.981,176)"
       id="text9"
       style="stroke-width:1.20042">-</text>
    <text
       font-family="'Times New Roman', 'Times New Roman_MSFontService', sans-serif"
       font-weight="400"
       font-size="13px"
       transform="translate(132.481,176)"
       id="text10"
       style="stroke-width:1.20042">10</text>
    <text
       font-family="'Times New Roman', 'Times New Roman_MSFontService', sans-serif"
       font-weight="400"
       font-size="13px"
       transform="translate(103.815,192)"
       id="text11"
       style="stroke-width:1.20042">Parameters</text>
    <path
       d="m 128.5,288.167 c 0,-2.025 1.642,-3.667 3.667,-3.667 h 97.666 c 2.025,0 3.667,1.642 3.667,3.667 v 14.666 c 0,2.025 -1.642,3.667 -3.667,3.667 h -97.666 c -2.025,0 -3.667,-1.642 -3.667,-3.667 z"
       stroke="#000000"
       stroke-width="1.60056"
       stroke-miterlimit="8"
       fill="#ffffff"
       fill-rule="evenodd"
       id="path11" />
    <text
       font-family="'Times New Roman', 'Times New Roman_MSFontService', sans-serif"
       font-weight="400"
       font-size="13px"
       transform="translate(142.094,300)"
       id="text12"
       style="stroke-width:1.20042">20 Parameters</text>
    <path
       d="m 66.5001,337.167 c 0,-3.13 2.5371,-5.667 5.6667,-5.667 h 89.6662 c 3.13,0 5.667,2.537 5.667,5.667 v 22.666 c 0,3.13 -2.537,5.667 -5.667,5.667 H 72.1668 c -3.1296,0 -5.6667,-2.537 -5.6667,-5.667 z"
       stroke="#000000"
       stroke-width="1.60056"
       stroke-miterlimit="8"
       fill="#ffffff"
       fill-rule="evenodd"
       id="path12" />
    <text
       font-family="'Times New Roman', 'Times New Roman_MSFontService', sans-serif"
       font-weight="400"
       font-size="13px"
       transform="translate(113.754,345)"
       id="text13"
       style="stroke-width:1.20042">s</text>
    <text
       font-family="'Times New Roman', 'Times New Roman_MSFontService', sans-serif"
       font-weight="400"
       font-size="13px"
       transform="translate(78.2539,361)"
       id="text14"
       style="stroke-width:1.20042">10</text>
    <text
       font-family="'Times New Roman', 'Times New Roman_MSFontService', sans-serif"
       font-weight="400"
       font-size="13px"
       transform="translate(94.9205,361)"
       id="text15"
       style="stroke-width:1.20042">Parameters</text>
    <path
       d="m 192.5,337.333 c 0,-3.221 2.612,-5.833 5.833,-5.833 h 88.334 c 3.221,0 5.833,2.612 5.833,5.833 v 23.334 c 0,3.221 -2.612,5.833 -5.833,5.833 h -88.334 c -3.221,0 -5.833,-2.612 -5.833,-5.833 z"
       stroke="#000000"
       stroke-width="1.60056"
       stroke-miterlimit="8"
       fill="#ffffff"
       fill-rule="evenodd"
       id="path15" />
    <text
       font-family="'Times New Roman', 'Times New Roman_MSFontService', sans-serif"
       font-weight="400"
       font-size="13px"
       transform="translate(240.227,346)"
       id="text16"
       style="stroke-width:1.20042">t</text>
    <text
       font-family="'Times New Roman', 'Times New Roman_MSFontService', sans-serif"
       font-weight="400"
       font-size="13px"
       transform="translate(203.974,362)"
       id="text17"
       style="stroke-width:1.20042">10 Parameters</text>
    <path
       d="m 290.5,169.833 c 0,-2.945 2.388,-5.333 5.333,-5.333 h 71.334 c 2.945,0 5.333,2.388 5.333,5.333 v 21.334 c 0,2.945 -2.388,5.333 -5.333,5.333 h -71.334 c -2.945,0 -5.333,-2.388 -5.333,-5.333 z"
       stroke="#000000"
       stroke-width="1.60056"
       stroke-miterlimit="8"
       fill="#ffffff"
       fill-rule="evenodd"
       id="path17" />
    <text
       font-family="'Times New Roman', 'Times New Roman_MSFontService', sans-serif"
       font-weight="400"
       font-size="13px"
       transform="translate(315.889,177)"
       id="text18"
       style="stroke-width:1.20042">11</text>
    <text
       font-family="'Times New Roman', 'Times New Roman_MSFontService', sans-serif"
       font-weight="400"
       font-size="13px"
       transform="translate(329.222,177)"
       id="text19"
       style="stroke-width:1.20042">-</text>
    <text
       font-family="'Times New Roman', 'Times New Roman_MSFontService', sans-serif"
       font-weight="400"
       font-size="13px"
       transform="translate(333.722,177)"
       id="text20"
       style="stroke-width:1.20042">20</text>
    <text
       font-family="'Times New Roman', 'Times New Roman_MSFontService', sans-serif"
       font-weight="400"
       font-size="13px"
       transform="translate(301.722,193)"
       id="text21"
       style="stroke-width:1.20042">Parameters</text>
    <path
       d="m 170.5,399.667 c 0,-2.301 1.866,-4.167 4.167,-4.167 h 134.666 c 2.302,0 4.167,1.866 4.167,4.167 v 16.666 c 0,2.302 -1.865,4.167 -4.167,4.167 H 174.667 c -2.301,0 -4.167,-1.865 -4.167,-4.167 z"
       stroke="#000000"
       stroke-width="1.60056"
       stroke-miterlimit="8"
       fill="#ffffff"
       fill-rule="evenodd"
       id="path21" />
    <text
       font-family="'Times New Roman', 'Times New Roman_MSFontService', sans-serif"
       font-weight="400"
       font-size="13px"
       transform="translate(180.791,412)"
       id="text22"
       style="stroke-width:1.20042">Affine Transformation</text>
    <path
       d="m 229.5,66.6669 c 0,-4.5104 3.656,-8.1668 8.167,-8.1668 h 67.666 c 4.511,0 8.167,3.6564 8.167,8.1668 v 32.6663 c 0,4.5108 -3.656,8.1668 -8.167,8.1668 h -67.666 c -4.511,0 -8.167,-3.656 -8.167,-8.1668 z"
       stroke="#000000"
       stroke-width="1.60056"
       stroke-miterlimit="8"
       fill="#ffffff"
       fill-rule="evenodd"
       id="path22" />
    <text
       font-family="'Times New Roman', 'Times New Roman_MSFontService', sans-serif"
       font-weight="400"
       font-size="13px"
       transform="translate(243.414,72)"
       id="text23"
       style="stroke-width:1.20042">1D</text>
    <text
       font-family="'Times New Roman', 'Times New Roman_MSFontService', sans-serif"
       font-weight="400"
       font-size="13px"
       transform="translate(263.081,72)"
       id="text24"
       style="stroke-width:1.20042">-</text>
    <text
       font-family="'Times New Roman', 'Times New Roman_MSFontService', sans-serif"
       font-weight="400"
       font-size="13px"
       transform="translate(270.914,72)"
       id="text25"
       style="stroke-width:1.20042">CNN</text>
    <text
       font-family="'Times New Roman', 'Times New Roman_MSFontService', sans-serif"
       font-weight="400"
       font-size="13px"
       transform="translate(243.414,88)"
       id="text26"
       style="stroke-width:1.20042">(Spectrum</text>
    <text
       font-family="'Times New Roman', 'Times New Roman_MSFontService', sans-serif"
       font-weight="400"
       font-size="13px"
       transform="translate(246.661,104)"
       id="text27"
       style="stroke-width:1.20042">Encoder)</text>
    <path
       d="m 192.5,451.167 c 0,-3.13 2.537,-5.667 5.667,-5.667 h 88.666 c 3.13,0 5.667,2.537 5.667,5.667 v 22.666 c 0,3.13 -2.537,5.667 -5.667,5.667 h -88.666 c -3.13,0 -5.667,-2.537 -5.667,-5.667 z"
       stroke="#000000"
       stroke-width="1.60056"
       stroke-miterlimit="8"
       fill="#ffffff"
       fill-rule="evenodd"
       id="path27" />
    <text
       font-family="'Times New Roman', 'Times New Roman_MSFontService', sans-serif"
       font-weight="400"
       font-size="13px"
       transform="translate(203.974,459)"
       id="text28"
       style="stroke-width:1.20042">10 Parameters</text>
    <text
       font-family="'Times New Roman', 'Times New Roman_MSFontService', sans-serif"
       font-weight="400"
       font-size="13px"
       transform="translate(212.72,475)"
       id="text29"
       style="stroke-width:1.20042">(Modified)</text>
    <path
       d="m 91.5001,451.167 c 0,-3.13 2.5371,-5.667 5.6667,-5.667 h 89.6662 c 3.13,0 5.667,2.537 5.667,5.667 v 22.666 c 0,3.13 -2.537,5.667 -5.667,5.667 H 97.1668 c -3.1296,0 -5.6667,-2.537 -5.6667,-5.667 z"
       stroke="#000000"
       stroke-width="1.60056"
       stroke-miterlimit="8"
       fill="#ffffff"
       fill-rule="evenodd"
       id="path29" />
    <text
       font-family="'Times New Roman', 'Times New Roman_MSFontService', sans-serif"
       font-weight="400"
       font-size="13px"
       transform="translate(103.622,459)"
       id="text30"
       style="stroke-width:1.20042">10 Parameters</text>
    <text
       font-family="'Times New Roman', 'Times New Roman_MSFontService', sans-serif"
       font-weight="400"
       font-size="13px"
       transform="translate(106.708,475)"
       id="text31"
       style="stroke-width:1.20042">(Unchanged)</text>
    <rect
       x="34.500099"
       y="137.5"
       width="360"
       height="362"
       stroke="#172c51"
       stroke-width="1.60056"
       stroke-miterlimit="8"
       stroke-dasharray="10.6667, 4"
       fill="none"
       id="rect31" />
    <path
       d="m 134.833,97.5001 v 59.9509 h -0.666 V 97.5001 Z m 3.667,58.6179 -4,8 -4,-8 z"
       id="path31"
       style="stroke-width:1.20042" />
    <path
       d="M 0.33252,-0.0232748 0.971801,9.10995 0.306762,9.1565 -0.33252,0.0232748 Z M 4.53642,7.52385 1.10478,15.7836 -3.44405,8.08245 Z"
       transform="matrix(-1,0,0,1,272.605,42.5001)"
       id="path32"
       style="stroke-width:1.20042" />
    <path
       d="M 0.333333,-2.53204e-4 0.356301,30.2355 -0.310366,30.236 -0.333333,2.53204e-4 Z M 4.02195,28.8993 0.0280315,36.9024 -3.97804,28.9054 Z"
       transform="matrix(-1,0,0,1,180.528,190.5)"
       id="path33"
       style="stroke-width:1.20042" />
    <path
       d="M 0.333332,-8.68314e-4 0.408564,28.8796 -0.2581,28.8813 -0.333332,8.68314e-4 Z M 4.07175,27.5367 0.0925984,35.5471 -3.92823,27.5575 Z"
       transform="matrix(-1,0,0,1,180.593,249.5)"
       id="path34"
       style="stroke-width:1.20042" />
    <path
       d="M 0,-0.333333 H 11.5011 V 29.4283 H 10.8344 V 0 l 0.3334,0.333333 H 0 Z M 15.1678,28.095 l -4,8 -4.00003,-8 z"
       transform="matrix(-1,0,0,1,127.668,295.5)"
       id="path35"
       style="stroke-width:1.20042" />
    <path
       d="m 233.5,295.167 h 9.541 v 29.255 h -0.667 V 295.5 l 0.333,0.333 H 233.5 Z m 13.207,27.921 -4,8 -4,-8 z"
       id="path36"
       style="stroke-width:1.20042" />
    <path
       d="M 0,-0.333333 H 42.5147 V 46.6736 H 41.8481 V 0 l 0.3333,0.333333 H 0 Z m 46.1814,45.673633 -4,8 -4,-8 z"
       transform="matrix(0,1,1,0,116.5,365.5)"
       id="path37-0"
       style="stroke-width:1.20042" />
    <path
       d="M 0.33328,-0.0059616 0.730479,22.1992 0.0639185,22.2111 -0.33328,0.0059616 Z M 4.37271,20.8005 0.51643,28.8708 -3.62601,20.9436 Z"
       transform="matrix(-1,0,0,1,243.016,366.5)"
       id="path38"
       style="stroke-width:1.20042" />
    <path
       d="m 331.902,196.5 v 211.903 h -11.735 v -0.666 h 11.402 l -0.334,0.333 V 196.5 Z m -10.402,215.57 -8,-4 8,-4 z"
       id="path39"
       style="stroke-width:1.20042" />
    <path
       d="m 242.833,420.493 0.38,18.598 -0.666,0.014 -0.38,-18.598 z m 4.019,17.19 -3.836,8.08 -4.162,-7.916 z"
       id="path40"
       style="stroke-width:1.20042" />
    <path
       d="M 0,0 H 31.2731 V 281.686"
       stroke="#000000"
       stroke-width="0.800281"
       stroke-miterlimit="8"
       fill="none"
       fill-rule="evenodd"
       transform="matrix(-1,0,0,1,86.7731,179.5)"
       id="path41" />
    <path
       d="m 55.5042,461.167 29.2806,0.368 -0.0084,0.666 -29.2805,-0.368 z m 27.9934,-3.315 7.9491,4.1 -8.0496,3.899 z"
       id="path42"
       style="stroke-width:1.20042" />
    <path
       d="m 271.986,107.5 v 21.733 H 227.5 l 0.333,-0.333 v 29.08 h -0.666 v -29.414 h 44.485 l -0.333,0.334 v -21.4 z m -40.486,49.147 -4,8 -4,-8 z"
       fill="#ff0000"
       id="path43"
       style="stroke-width:1.20042" />
    <path
       d="m 134.5,147.167 h 198.241 v 10.441 h -0.667 V 147.5 l 0.333,0.333 H 134.5 Z m 201.907,9.108 -4,8 -4,-8 z"
       id="path44"
       style="stroke-width:1.20042" />
    <path
       d="m 291.166,515.5 c 6.26,0 11.334,5.074 11.334,11.334 v 45.333 c 0,6.259 -5.074,11.333 -11.334,11.333 h -64.332 c -6.26,0 -11.334,-5.074 -11.334,-11.333 v -45.333 c 0,-6.26 5.074,-11.334 11.334,-11.334 z"
       stroke="#172c51"
       stroke-width="1.60056"
       stroke-miterlimit="8"
       fill="none"
       fill-rule="evenodd"
       id="path45" />
    <path
       d="m 259.5,534.833 c 0,1.473 -1.194,2.667 -2.667,2.667 h -32.666 c -1.473,0 -2.667,-1.194 -2.667,-2.667 v -10.666 c 0,-1.473 1.194,-2.667 2.667,-2.667 h 32.666 c 1.473,0 2.667,1.194 2.667,2.667 z"
       stroke="#172c51"
       stroke-width="1.60056"
       stroke-miterlimit="8"
       fill="#eab200"
       fill-rule="evenodd"
       id="path46" />
    <path
       d="m 296.5,534.833 c 0,1.473 -1.194,2.667 -2.667,2.667 h -31.666 c -1.473,0 -2.667,-1.194 -2.667,-2.667 v -10.666 c 0,-1.473 1.194,-2.667 2.667,-2.667 h 31.666 c 1.473,0 2.667,1.194 2.667,2.667 z"
       stroke="#172c51"
       stroke-width="1.60056"
       stroke-miterlimit="8"
       fill="#0070c0"
       fill-rule="evenodd"
       id="path47" />
    <path
       d="m 259.5,574.667 c 0,1.565 -1.268,2.833 -2.833,2.833 h -32.334 c -1.564,0 -2.833,-1.268 -2.833,-2.833 v -11.334 c 0,-1.564 1.269,-2.833 2.833,-2.833 h 32.334 c 1.565,0 2.833,1.269 2.833,2.833 z"
       stroke="#172c51"
       stroke-width="1.60056"
       stroke-miterlimit="8"
       fill="#0070c0"
       fill-rule="evenodd"
       id="path48" />
    <path
       d="m 296.5,574.667 c 0,1.565 -1.268,2.833 -2.833,2.833 h -31.334 c -1.564,0 -2.833,-1.268 -2.833,-2.833 v -11.334 c 0,-1.564 1.269,-2.833 2.833,-2.833 h 31.334 c 1.565,0 2.833,1.269 2.833,2.833 z"
       stroke="#172c51"
       stroke-width="1.60056"
       stroke-miterlimit="8"
       fill="#eab200"
       fill-rule="evenodd"
       id="path49" />
    <path
       d="m 278.337,537.783 -32.005,19.968 -0.352,-0.565 32.004,-19.969 z m -28.932,22.373 -8.905,0.841 4.67,-7.628 z"
       id="path50"
       style="stroke-width:1.20042" />
    <path
       d="M 0.282803,-0.176448 20.2509,31.8276 19.6853,32.1805 -0.282803,0.176448 Z M 22.656,28.7555 l 0.8411,8.9047 -7.6284,-4.6699 z"
       transform="matrix(0,1,1,0,240.5,537.5)"
       id="path51"
       style="stroke-width:1.20042" />
    <path
       d="m 259.833,499.5 v 9.154 h -0.666 V 499.5 Z m 3.667,7.82 -4,8 -4,-8 z"
       id="path52"
       style="stroke-width:1.20042" />
    <path
       d="M 0,0 H 111.051 V 423.135"
       stroke="#000000"
       stroke-width="0.800281"
       stroke-miterlimit="8"
       fill="none"
       fill-rule="evenodd"
       transform="matrix(1,0,0,-1,302.5,549.635)"
       id="path53" />
    <path
       d="M 0,-0.333333 H 32.0434 L 32.0511,5.47315 31.3845,5.47404 31.3772,4.4475e-4 31.7105,0.333333 H 0 Z M 35.7104,4.11836 31.7543,12.1402 27.7106,4.16219 Z"
       transform="matrix(-1,0,0,1,413.254,125.5)"
       id="path54"
       style="stroke-width:1.20042" />
    <rect
       x="197.5"
       y="524.5"
       width="17"
       height="47"
       stroke="#ffffff"
       stroke-width="1.60056"
       stroke-miterlimit="8"
       fill="#ffffff"
       id="rect54" />
    <text
       font-family="'Times New Roman', 'Times New Roman_MSFontService', sans-serif"
       font-weight="400"
       font-size="13px"
       transform="rotate(-90,384.237,173.763)"
       id="text54"
       style="stroke-width:1.20042">Fli</text>
    <text
       font-family="'Times New Roman', 'Times New Roman_MSFontService', sans-serif"
       font-weight="400"
       font-size="13px"
       transform="rotate(-90,376.737,166.263)"
       id="text55"
       style="stroke-width:1.20042">p</text>
    <path
       d="m 306.5,540.667 c 0,-0.645 0.522,-1.167 1.167,-1.167 h 102.666 c 0.645,0 1.167,0.522 1.167,1.167 v 4.666 c 0,0.645 -0.522,1.167 -1.167,1.167 H 307.667 c -0.645,0 -1.167,-0.522 -1.167,-1.167 z"
       stroke="#ffffff"
       stroke-width="1.60056"
       stroke-miterlimit="8"
       fill="#ffffff"
       fill-rule="evenodd"
       id="path55" />
    <text
       font-family="'Times New Roman', 'Times New Roman_MSFontService', sans-serif"
       font-weight="400"
       font-size="13px"
       transform="translate(316.463,547)"
       id="text56"
       style="stroke-width:1.20042">Repeat</text>
    <text
       font-family="'Times New Roman', 'Times New Roman_MSFontService', sans-serif"
       font-weight="400"
       font-size="13px"
       transform="translate(356.963,547)"
       id="text57"
       style="stroke-width:1.20042">8</text>
    <text
       font-family="'Times New Roman', 'Times New Roman_MSFontService', sans-serif"
       font-weight="400"
       font-size="13px"
       transform="translate(366.963,547)"
       id="text58"
       style="stroke-width:1.20042">Time</text>
    <text
       font-family="'Times New Roman', 'Times New Roman_MSFontService', sans-serif"
       font-weight="400"
       font-size="13px"
       transform="translate(395.13,547)"
       id="text59"
       style="stroke-width:1.20042">s</text>
    <text
       font-family="'Times New Roman', 'Times New Roman_MSFontService', sans-serif"
       font-weight="400"
       font-size="13px"
       transform="translate(39.5257,134)"
       id="text60"
       style="stroke-width:1.20042">Coupling Block</text>
    <rect
       x="12"
       y="116"
       width="423"
       height="477"
       stroke="#172c51"
       stroke-width="2.40084"
       stroke-miterlimit="8"
       fill="none"
       id="rect60" />
    <path
       d="m 150.5,231.167 c 0,-2.025 1.642,-3.667 3.667,-3.667 h 52.666 c 2.025,0 3.667,1.642 3.667,3.667 v 14.666 c 0,2.025 -1.642,3.667 -3.667,3.667 h -52.666 c -2.025,0 -3.667,-1.642 -3.667,-3.667 z"
       stroke="#000000"
       stroke-width="1.60056"
       stroke-miterlimit="8"
       fill="#ffffff"
       fill-rule="evenodd"
       id="path60" />
    <text
       font-family="'Times New Roman', 'Times New Roman_MSFontService', sans-serif"
       font-weight="400"
       font-size="13px"
       transform="translate(161.77,243)"
       id="text61"
       style="stroke-width:1.20042">Subne</text>
    <text
       font-family="'Times New Roman', 'Times New Roman_MSFontService', sans-serif"
       font-weight="400"
       font-size="13px"
       transform="translate(195.103,243)"
       id="text62"
       style="stroke-width:1.20042">t</text>
    <path
       d="m 39.5001,618.667 c 0,-2.854 2.3132,-5.167 5.1667,-5.167 h 84.6662 c 2.854,0 5.167,2.313 5.167,5.167 v 20.666 c 0,2.854 -2.313,5.167 -5.167,5.167 H 44.6668 c -2.8535,0 -5.1667,-2.313 -5.1667,-5.167 z"
       stroke="#000000"
       stroke-width="1.60056"
       stroke-miterlimit="8"
       fill="#ffffff"
       fill-rule="evenodd"
       id="path62" />
    <text
       font-family="'Times New Roman', 'Times New Roman_MSFontService', sans-serif"
       font-weight="400"
       font-size="13px"
       transform="translate(83.7751,625)"
       id="text63"
       style="stroke-width:1.20042">z</text>
    <text
       font-family="'Times New Roman', 'Times New Roman_MSFontService', sans-serif"
       font-weight="400"
       font-size="13px"
       transform="translate(52.0284,641)"
       id="text64"
       style="stroke-width:1.20042">Latent Space</text>
    <path
       d="m 87.8334,593.499 0.0463,13.112 -0.6666,0.002 -0.0464,-13.112 z m 3.7083,11.766 -3.9717,8.014 -4.0283,-7.986 z"
       id="path64"
       style="stroke-width:1.20042" />
    <path
       d="m 46.5001,664.333 c 0,-2.117 1.7162,-3.833 3.8333,-3.833 h 74.3336 c 2.117,0 3.833,1.716 3.833,3.833 v 15.334 c 0,2.117 -1.716,3.833 -3.833,3.833 H 50.3334 c -2.1171,0 -3.8333,-1.716 -3.8333,-3.833 z"
       stroke="#000000"
       stroke-width="1.60056"
       stroke-miterlimit="8"
       fill="#ffffff"
       fill-rule="evenodd"
       id="path65" />
    <text
       font-family="'Times New Roman', 'Times New Roman_MSFontService', sans-serif"
       font-weight="400"
       font-size="13px"
       transform="translate(59.6604,676)"
       id="text65"
       style="stroke-width:1.20042">NLL</text>
    <text
       font-family="'Times New Roman', 'Times New Roman_MSFontService', sans-serif"
       font-weight="400"
       font-size="13px"
       transform="translate(88.9937,676)"
       id="text66"
       style="stroke-width:1.20042">Los</text>
    <text
       font-family="'Times New Roman', 'Times New Roman_MSFontService', sans-serif"
       font-weight="400"
       font-size="13px"
       transform="translate(108.994,676)"
       id="text67"
       style="stroke-width:1.20042">s</text>
    <path
       d="m 87.8334,642.496 0.1282,11.57 -0.6666,0.008 -0.1283,-11.57 z m 3.7799,10.196 -3.9111,8.044 -4.0885,-7.955 z"
       id="path67"
       style="stroke-width:1.20042" />
    <path
       d="M 0,-0.333333 H 5.33333 V 0.333333 H 0 Z m 7.33333,0 H 8 V 0.333333 H 7.33333 Z m 2.66667,0 h 5.3333 V 0.333333 H 10 Z m 7.3333,0 H 18 v 0.666666 h -0.6667 z m 2.6667,0 h 5.3333 V 0.333333 H 20 Z m 7.3333,0 H 28 v 0.666666 h -0.6667 z m 2.6667,0 h 5.3333 V 0.333333 H 30 Z m 7.3333,0 H 38 v 0.666666 h -0.6667 z m 2.6667,0 h 5.0528 V 0.613858 H 44.3861 V 0 l 0.3334,0.333333 H 40 Z M 45.0528,2.61386 V 3.28052 H 44.3861 V 2.61386 Z m 0,2.66666 V 10.6139 H 44.3861 V 5.28052 Z m 0,7.33338 v 0.6666 h -0.6667 v -0.6666 z m 0,2.6666 v 5.3334 h -0.6667 v -5.3334 z m 0,7.3334 v 0.6666 h -0.6667 v -0.6666 z m 0,2.6666 v 5.3334 h -0.6667 v -5.3334 z m 0,7.3334 v 0.6666 h -0.6667 v -0.6666 z m 0,2.6666 v 5.3334 h -0.6667 v -5.3334 z m 0,7.3334 v 0.6666 h -0.6667 v -0.6666 z m 0,2.6666 v 5.3334 h -0.6667 v -5.3334 z m 0,7.3334 v 0.6666 h -0.6667 v -0.6666 z m 0,2.6666 v 5.3334 h -0.6667 v -5.3334 z m 0,7.3334 v 0.6666 h -0.6667 v -0.6666 z m 0,2.6666 v 5.3334 h -0.6667 v -5.3334 z m 0,7.3334 v 0.6666 h -0.6667 v -0.6666 z m 0,2.6666 v 5.3334 h -0.6667 v -5.3334 z m 0,7.3334 v 0.6666 h -0.6667 v -0.6666 z m 0,2.6666 v 5.3334 h -0.6667 v -5.3334 z m 0,7.3334 v 0.6666 h -0.6667 v -0.6666 z m 0,2.6666 v 5.3335 h -0.6667 v -5.3335 z m 0,7.3335 v 0.667 h -0.6667 v -0.667 z m 0,2.667 v 5.333 h -0.6667 v -5.333 z m 0,7.333 v 0.667 h -0.6667 v -0.667 z m 0,2.667 v 5.333 h -0.6667 v -5.333 z m 0,7.333 v 0.667 h -0.6667 v -0.667 z m 0,2.667 v 5.333 h -0.6667 v -5.333 z m 0,7.333 v 0.667 h -0.6667 v -0.667 z m 0,2.667 v 5.333 h -0.6667 v -5.333 z m 0,7.333 v 0.667 h -0.6667 v -0.667 z m 0,2.667 v 5.333 h -0.6667 v -5.333 z m 0,7.333 v 0.667 h -0.6667 v -0.667 z m 0,2.667 v 5.333 h -0.6667 v -5.333 z m 0,7.333 v 0.667 h -0.6667 v -0.667 z m 0,2.667 v 0.819 h -0.6667 v -0.819 z m 3.6667,-0.514 -4,8 -4,-8 z"
       transform="matrix(1,0,0,-1,128.5,672.267)"
       id="path68"
       style="stroke-width:1.20042" />
    <text
       font-family="'Times New Roman', 'Times New Roman_MSFontService', sans-serif"
       font-weight="400"
       font-size="13px"
       transform="translate(176.26,623)"
       id="text68"
       style="stroke-width:1.20042">Backpropagation</text>
    <text
       font-family="'Times New Roman', 'Times New Roman_MSFontService', sans-serif"
       font-weight="400"
       font-size="13px"
       transform="translate(176.26,639)"
       id="text69"
       style="stroke-width:1.20042">to every coupling</text>
    <text
       font-family="'Times New Roman', 'Times New Roman_MSFontService', sans-serif"
       font-weight="400"
       font-size="13px"
       transform="translate(176.26,655)"
       id="text70"
       style="stroke-width:1.20042">block</text>
  </g>
</svg>
